<?xml version="1.0" encoding="UTF-8" standalone="no"?>
<!-- Created with Inkscape (http://www.inkscape.org/) -->

<svg
   width="150mm"
   height="100mm"
   viewBox="0 0 150 100"
   version="1.1"
   id="svg1"
   sodipodi:docname="possibly_fully_vectorized_logo_maybe.svg"
   inkscape:version="1.4.4 (dcaf3e7, 2026-05-05)"
   xmlns:inkscape="http://www.inkscape.org/namespaces/inkscape"
   xmlns:sodipodi="http://sodipodi.sourceforge.net/DTD/sodipodi-0.dtd"
   xmlns="http://www.w3.org/2000/svg"
   xmlns:svg="http://www.w3.org/2000/svg">
  <sodipodi:namedview
     id="namedview1"
     pagecolor="#ffffff"
     bordercolor="#000000"
     borderopacity="0.25"
     inkscape:showpageshadow="2"
     inkscape:pageopacity="0.0"
     inkscape:pagecheckerboard="true"
     inkscape:deskcolor="#d1d1d1"
     inkscape:document-units="mm"
     inkscape:zoom="1.1762705"
     inkscape:cx="333.68174"
     inkscape:cy="126.24647"
     inkscape:window-width="1920"
     inkscape:window-height="1009"
     inkscape:window-x="1912"
     inkscape:window-y="-8"
     inkscape:window-maximized="1"
     inkscape:current-layer="layer1">
    <inkscape:page
       x="0"
       y="0"
       width="150"
       height="100"
       id="page2"
       margin="0"
       bleed="0" />
  </sodipodi:namedview>
  <defs
     id="defs1" />
  <g
     inkscape:label="Layer 1"
     inkscape:groupmode="layer"
     id="layer1">
    <g
       fill="#00677f"
       fill-opacity="1"
       id="g12"
       transform="matrix(0.11747808,0,0,0.12668123,-19.222724,-6.2124537)"
       style="fill:#006b77;fill-opacity:1">
      <g
         id="use12"
         transform="translate(189.12238,611.42688)"
         style="fill:#006b77;fill-opacity:1">
        <path
           d="m 192.32422,-394.85547 c -106.660158,0 -174.738282,81.69531 -174.738282,200.26563 0,118.570309 66.378906,200.261715 171.898432,200.261715 90.77344,0 150.91016,-54.460937 160.55469,-141.828125 l -88.5039,-5.67578 c -6.8086,47.656249 -31.76954,73.187499 -67.51172,73.187499 -49.92188,0 -74.88672,-32.906249 -74.88672,-121.410159 0,-89.0664 24.39453,-131.61718 70.34765,-131.61718 40.84766,0 63.54297,26.66406 65.24219,83.39453 l 95.3125,-6.23828 c -10.78125,-99.84766 -65.24219,-150.33985 -157.71484,-150.33985 z m 0,0"
           id="path33"
           style="fill:#006b77;fill-opacity:1" />
      </g>
    </g>
    <g
       fill="#00677f"
       fill-opacity="1"
       id="g13"
       transform="matrix(0.11747808,0,0,0.12668123,-19.222724,-6.2124537)"
       style="fill:#006b77;fill-opacity:1">
      <g
         id="use13"
         transform="translate(577.73779,611.42688)"
         style="fill:#006b77;fill-opacity:1">
        <path
           d="m 162.25391,-394.85547 c -85.09766,0 -140.12891,52.19141 -140.12891,123.10938 0,32.90234 9.644531,55.59765 28.933594,75.45312 19.289062,19.85547 59.003906,35.17188 118.570316,46.51953 42.55078,8.51172 57.86718,20.99219 57.86718,41.41406 0,26.664068 -24.96093,41.98438 -61.26953,41.98438 -43.68359,0 -70.917966,-18.15625 -80.562498,-55.03125 L 1.703125,-102.11719 C 17.019531,-34.605469 74.886719,5.671875 158.85156,5.671875 c 137.28906,0 161.11719,-90.203125 161.11719,-129.347655 0,-51.625 -30.63281,-79.99219 -53.89453,-93.60938 -25.53125,-15.3164 -66.94531,-25.52734 -107.22266,-32.90234 -31.20312,-5.67578 -47.65625,-18.15625 -47.65625,-37.44531 0,-23.26172 18.15235,-36.3086 53.89453,-36.3086 34.60938,0 55.59766,12.48047 66.94532,45.95313 l 77.15625,-25.52734 c -20.42579,-59.00391 -68.07813,-91.33985 -146.9375,-91.33985 z m 0,0"
           id="path32"
           style="fill:#006b77;fill-opacity:1" />
      </g>
    </g>
    <g
       fill="#00677f"
       fill-opacity="1"
       id="g14"
       transform="matrix(0.11747808,0,0,0.12668123,-19.222724,-6.2124537)"
       style="fill:#006b77;fill-opacity:1">
      <g
         id="use14"
         transform="translate(932.31384,611.42688)"
         style="fill:#006b77;fill-opacity:1">
        <path
           d="m 186.08203,-394.85547 c -107.222655,0 -169.062499,86.23047 -169.062499,203.66797 0,116.300781 57.867188,196.859375 161.121089,196.859375 45.38282,0 78.28907,-15.882813 106.08985,-50.492187 L 297.27734,0 h 41.41407 V -208.20703 H 178.70703 v 72.61719 h 73.75 v 5.10547 c 0,36.874995 -26.66406,62.406245 -64.67187,62.406245 -49.92579,0 -77.72266,-47.089845 -77.72266,-121.976565 0,-82.26172 25.52734,-131.61718 73.75,-131.61718 38.57812,0 63.53906,26.66406 68.64453,72.05078 l 86.23438,-11.91407 c -13.04688,-84.53125 -70.91407,-133.32031 -152.60938,-133.32031 z m 0,0"
           id="path31"
           style="fill:#006b77;fill-opacity:1" />
      </g>
    </g>
    <g
       fill="#00677f"
       fill-opacity="1"
       id="g17"
       transform="matrix(0.11747808,0,0,0.12668123,-19.222724,-6.2124537)"
       style="fill:#006b77;fill-opacity:1">
      <g
         id="use16"
         transform="translate(213.67755,811.43915)"
         style="fill:#006b77;fill-opacity:1">
        <path
           d="m 69.175781,-123.66797 c -15.871093,0 -27.714843,10.42578 -35.0625,31.51172 h -0.472656 v -28.19531 H 17.058594 V 0 h 18.476562 v -62.308594 c 0,-24.164062 14.925782,-43.117186 36.722656,-43.117186 h 4.027344 v -17.76563 c -2.605468,-0.23828 -4.976562,-0.47656 -7.109375,-0.47656 z m 0,0"
           id="path25"
           style="fill:#006b77;fill-opacity:1" />
      </g>
    </g>
    <g
       fill="#00677f"
       fill-opacity="1"
       id="g18"
       transform="matrix(0.11747808,0,0,0.12668123,-19.222724,-6.2124537)"
       style="fill:#006b77;fill-opacity:1">
      <g
         id="use17"
         transform="translate(319.10245,811.43915)"
         style="fill:#006b77;fill-opacity:1">
        <path
           d="m 64.441406,-123.42969 c -33.878906,0 -55.675781,27.718752 -55.675781,63.253909 0,36.957031 21.558594,62.542969 55.199219,62.542969 23.453125,0 43.828126,-13.503907 51.171876,-35.296876 l -17.531251,-3.554687 c -4.972657,14.214844 -16.34375,23.21875 -31.980469,23.21875 -15.636719,0 -36.011719,-9.476563 -36.011719,-42.644531 v -2.84375 h 87.421879 v -2.605469 c 0,-36.246094 -18.953129,-62.070315 -52.593754,-62.070315 z M 30.5625,-72.496094 c 1.421875,-22.03125 15.871094,-36.718746 33.640625,-36.718746 19.898437,0 32.457031,14.687496 32.457031,36.718746 z m 0,0"
           id="path1"
           style="fill:#006b77;fill-opacity:1" />
      </g>
    </g>
    <g
       fill="#00677f"
       fill-opacity="1"
       id="g19"
       transform="matrix(0.11747808,0,0,0.12668123,-19.222724,-6.2124537)"
       style="fill:#006b77;fill-opacity:1">
      <g
         id="use18"
         transform="translate(476.64746,811.43915)"
         style="fill:#006b77;fill-opacity:1">
        <path
           d="m 60.175781,-123.42969 c -25.585937,0 -45.011719,13.03125 -45.011719,35.300784 0,18.953125 13.265626,29.375 35.296876,33.402344 l 22.269531,4.027343 c 13.980469,2.605469 20.847656,8.527344 20.847656,17.769531 0,12.554688 -11.371094,19.898438 -29.136719,19.898438 -18.242187,0 -34.117187,-8.527344 -36.25,-22.503906 L 10.1875,-31.984375 c 5.449219,21.796875 25.585938,34.351563 52.832031,34.351563 29.613281,0 49.988279,-13.976563 49.988279,-37.191407 0,-16.113281 -10.1875,-28.90625 -28.429685,-33.167969 C 75.335938,-70.125 64.675781,-72.019531 52.832031,-73.914062 40.75,-75.8125 34.351562,-81.496094 34.351562,-90.972656 c 0,-11.136724 11.136719,-17.531254 25.585938,-17.531254 15.164062,0 26.773438,6.8711 30.800781,18.953129 l 17.054689,-3.554688 C 102.82031,-112.76953 85.050781,-123.42969 60.175781,-123.42969 Z m 0,0"
           id="path30"
           style="fill:#006b77;fill-opacity:1" />
      </g>
    </g>
    <g
       fill="#00677f"
       fill-opacity="1"
       id="g20"
       transform="matrix(0.11747808,0,0,0.12668123,-19.222724,-6.2124537)"
       style="fill:#006b77;fill-opacity:1">
      <g
         id="use19"
         transform="translate(629.45422,811.43915)"
         style="fill:#006b77;fill-opacity:1">
        <path
           d="m 64.441406,-123.42969 c -33.878906,0 -55.675781,27.718752 -55.675781,63.253909 0,36.957031 21.558594,62.542969 55.199219,62.542969 23.453125,0 43.828126,-13.503907 51.171876,-35.296876 l -17.531251,-3.554687 c -4.972657,14.214844 -16.34375,23.21875 -31.980469,23.21875 -15.636719,0 -36.011719,-9.476563 -36.011719,-42.644531 v -2.84375 h 87.421879 v -2.605469 c 0,-36.246094 -18.953129,-62.070315 -52.593754,-62.070315 z M 30.5625,-72.496094 c 1.421875,-22.03125 15.871094,-36.718746 33.640625,-36.718746 19.898437,0 32.457031,14.687496 32.457031,36.718746 z m 0,0"
           id="path12"
           style="fill:#006b77;fill-opacity:1" />
      </g>
    </g>
    <g
       fill="#00677f"
       fill-opacity="1"
       id="g21"
       transform="matrix(0.11747808,0,0,0.12668123,-19.222724,-6.2124537)"
       style="fill:#006b77;fill-opacity:1">
      <g
         id="use20"
         transform="translate(786.99927,811.43915)"
         style="fill:#006b77;fill-opacity:1">
        <path
           d="m 64.203125,-123.42969 c -28.667969,0 -49.515625,12.32031 -51.882813,32.92969 l 17.292969,2.84375 c 2.605469,-13.74219 13.742188,-21.32422 32.929688,-21.32422 20.847656,0 30.5625,7.82031 30.5625,28.429689 V -74.625 H 76.523438 c -29.378907,0 -45.25,4.738281 -54.492188,13.027344 -9.238281,8.292968 -13.027344,17.769531 -13.027344,27.484375 0,22.269531 17.292969,36.480469 41.933594,36.480469 18.949219,0 33.402344,-7.34375 42.167969,-24.875 L 95.238281,0 h 18.480469 c -2.60937,-8.292969 -2.60937,-18.242188 -2.60937,-23.691406 v -51.410156 c 0,-17.054688 -2.12891,-27.242188 -9.23829,-35.535158 -6.632809,-8.05469 -16.820309,-12.79297 -37.667965,-12.79297 z m -35.300781,90.261721 c 0,-18.003906 16.347656,-27.480469 46.910156,-27.480469 h 17.292969 v 7.816407 c 0,21.796875 -15.636719,40.75 -38.140625,40.75 -15.402344,0 -26.0625,-7.820313 -26.0625,-21.085938 z m 0,0"
           id="path27"
           style="fill:#006b77;fill-opacity:1" />
      </g>
    </g>
    <g
       fill="#00677f"
       fill-opacity="1"
       id="g22"
       transform="matrix(0.11747808,0,0,0.12668123,-19.222724,-6.2124537)"
       style="fill:#006b77;fill-opacity:1">
      <g
         id="use21"
         transform="translate(944.54431,811.43915)"
         style="fill:#006b77;fill-opacity:1">
        <path
           d="m 69.175781,-123.66797 c -15.871093,0 -27.714843,10.42578 -35.0625,31.51172 h -0.472656 v -28.19531 H 17.058594 V 0 h 18.476562 v -62.308594 c 0,-24.164062 14.925782,-43.117186 36.722656,-43.117186 h 4.027344 v -17.76563 c -2.605468,-0.23828 -4.976562,-0.47656 -7.109375,-0.47656 z m 0,0"
           id="path26"
           style="fill:#006b77;fill-opacity:1" />
      </g>
    </g>
    <g
       fill="#00677f"
       fill-opacity="1"
       id="g23"
       transform="matrix(0.11747808,0,0,0.12668123,-19.222724,-6.2124537)"
       style="fill:#006b77;fill-opacity:1">
      <g
         id="use22"
         transform="translate(1049.9691,811.43915)"
         style="fill:#006b77;fill-opacity:1">
        <path
           d="m 59.464844,-123.42969 c -31.984375,0 -51.410156,27.480471 -51.410156,63.253909 0,36.484375 19.191406,62.542969 51.171874,62.542969 23.929688,0 41.460938,-15.398438 46.433598,-42.167969 l -17.054691,-3.078125 c -3.792969,19.660156 -13.980469,29.375 -29.851563,29.375 -19.902344,0 -31.035156,-18.714844 -31.035156,-47.855469 0,-27.246094 11.371094,-46.433595 32.21875,-46.433595 15.875,0 26.535156,11.132814 28.667969,29.140626 l 17.054691,-3.082031 c -4.5,-26.769535 -21.558598,-41.695315 -46.195316,-41.695315 z m 0,0"
           id="path28"
           style="fill:#006b77;fill-opacity:1" />
      </g>
    </g>
    <g
       fill="#00677f"
       fill-opacity="1"
       id="g24"
       transform="matrix(0.11747808,0,0,0.12668123,-19.222724,-6.2124537)"
       style="fill:#006b77;fill-opacity:1">
      <g
         id="use23"
         transform="translate(1193.2997,811.43915)"
         style="fill:#006b77;fill-opacity:1">
        <path
           d="M 16.582031,-162.51953 V 0 H 35.0625 v -66.808594 c 0,-28.191406 19.902344,-41.460936 33.40625,-41.460936 24.164062,0 24.398438,23.45703 24.398438,34.828124 V 0 h 18.480472 v -81.734375 c 0,-27.246095 -17.531254,-41.695315 -38.140629,-41.695315 -17.296875,0 -28.90625,7.58203 -37.433593,25.347659 H 35.0625 v -64.437499 z m 0,0"
           id="path29"
           style="fill:#006b77;fill-opacity:1" />
      </g>
    </g>
    <g
       id="g1">
      <path
         d="m 147.6406,2.5409302 -0.83354,0.054777 -0.83354,0.054777 -4.58577,1.6691488 c -2.52201,0.9179923 -8.75008,3.1779379 -13.83998,5.0219157 -5.08989,1.8439773 -9.52971,3.4723413 -9.86658,3.6189003 l -0.61237,0.266651 -0.36018,0.689363 -0.36019,0.688847 0.27131,0.63717 0.27078,0.637171 0.45165,0.256315 c 0.24824,0.141047 3.37596,1.168504 6.95048,2.283065 l 6.49883,2.026749 2.02933,6.500896 c 1.11597,3.575546 2.14688,6.708415 2.29082,6.962365 l 0.26148,0.461988 0.38137,0.155029 0.38086,0.155546 0.63562,-0.02481 0.63614,-0.02532 0.38757,-0.387573 c 0.21336,-0.213359 0.46891,-0.592478 0.56741,-0.842326 0.32577,-0.826317 9.05307,-24.9249294 9.79113,-27.0360761 l 0.72399,-2.0701578 -0.0858,-0.1384929 c -0.0471,-0.07621 -0.11446,-0.2887143 -0.14986,-0.4723226 l -0.0646,-0.3338297 -0.46819,-0.4051433 z m -0.11265,0.8009847 a 0.08338084,0.08338084 0 0 1 0.062,0.1348755 l -0.30283,0.4159952 0.22066,0.2185914 a 0.08338084,0.08338084 0 0 1 0.0196,0.085783 l -4.6545,13.4084842 c -1.12581,3.242804 -2.58804,5.978534 -4.83174,12.716536 l -0.99219,2.980697 a 0.08338084,0.08338084 0 0 1 -0.0646,0.05633 l -0.26561,0.05116 -0.26562,0.05064 a 0.08338084,0.08338084 0 0 1 -0.0801,-0.03152 l -0.17208,-0.214457 v -5.17e-4 c -0.002,-0.002 -0.006,-0.0089 -0.008,-0.01137 -0.002,-0.0028 -0.003,-0.0055 -0.004,-0.0078 -0.002,-0.0045 -0.004,-0.009 -0.006,-0.01395 -0.005,-0.01005 -0.0121,-0.0212 -0.0181,-0.03669 -0.013,-0.03098 -0.0291,-0.07477 -0.0506,-0.129191 -0.0429,-0.108839 -0.1027,-0.26281 -0.1757,-0.454753 -0.1461,-0.383887 -0.34653,-0.917976 -0.57413,-1.531689 -0.45518,-1.227427 -1.02054,-2.776043 -1.48621,-4.09174 -0.23284,-0.657848 -0.44124,-1.257715 -0.5979,-1.730127 -0.15666,-0.472411 -0.26083,-0.811546 -0.29093,-0.973067 -0.004,-0.02019 -0.007,-0.03757 -0.008,-0.05426 -0.001,-0.01669 -0.004,-0.03072 0.004,-0.05684 0.002,-0.0065 0.005,-0.013 0.0103,-0.0217 0.005,-0.0087 0.0246,-0.02686 0.0253,-0.02739 3e-4,-2e-4 0.008,-0.0015 0.0134,-0.0036 l -1.7048,-4.029211 -4.83226,-1.963188 c -0.008,0.0071 -0.0131,0.01579 -0.0134,0.01602 -7e-4,5e-4 -0.0178,0.008 -0.0238,0.0098 -0.0256,0.0073 -0.0382,0.0027 -0.0527,0.0015 -0.0145,-0.0013 -0.0292,-0.0025 -0.0465,-0.0057 -0.0345,-0.0065 -0.0764,-0.01722 -0.12919,-0.03101 -0.4221,-0.110279 -1.4602,-0.451504 -2.66961,-0.863514 -1.20941,-0.412009 -2.58737,-0.892513 -3.67212,-1.275374 -0.54238,-0.191431 -1.01091,-0.35881 -1.34979,-0.480591 -0.16945,-0.06089 -0.30691,-0.110494 -0.40411,-0.146244 -0.0486,-0.01788 -0.087,-0.03215 -0.11524,-0.04289 -0.0282,-0.01074 -0.0382,-0.01329 -0.0584,-0.02377 l -0.29146,-0.152445 a 0.08338084,0.08338084 0 0 1 -0.0444,-0.0739 v -0.130225 l -0.13746,-0.04806 -0.20412,-0.408244 0.46457,-0.169499 0.11524,-0.0956 c 7e-4,-6e-4 0.0104,-0.0078 0.0134,-0.0098 0.004,-0.002 0.007,-0.0026 0.0103,-0.0041 0.006,-0.0031 0.0121,-0.0065 0.0191,-0.0098 0.0144,-0.0066 0.0315,-0.01355 0.0548,-0.02325 0.0466,-0.01949 0.1134,-0.04708 0.1974,-0.0801 0.168,-0.06604 0.4082,-0.159149 0.71468,-0.275435 0.61296,-0.23257 1.48644,-0.55846 2.54714,-0.952914 2.12138,-0.788906 4.99447,-1.849537 8.04653,-2.9688109 6.10411,-2.2385472 12.92138,-4.713676 15.86157,-5.7345337 l 2.16421,-0.7518921 a 0.08338084,0.08338084 0 0 1 0.0222,-0.00517 0.08338084,0.08338084 0 0 1 0.0114,-5.167e-4 z"
         style="fill:#006b77;stroke-width:0.166745;stroke-linecap:round;stroke-linejoin:round"
         id="path7" />
      <path
         d="m 147.29902,3.5935791 -0.0103,0.00362 -15.72617,16.1292475 -3.91139,-1.36064 3.77445,1.532723 a 0.08338084,0.08338084 0 0 1 0.045,0.04496 l 2.65668,6.28127 -0.0765,0.03307 -0.076,0.03307 c -0.29471,-0.696722 -0.45212,-1.03736 -0.60772,-1.37666 0.0327,0.102401 0.0326,0.122068 0.0724,0.241845 0.15606,0.470597 0.36528,1.069282 0.5979,1.72651 0.46523,1.314458 1.0292,2.861345 1.48414,4.088122 0.22747,0.613389 0.4283,1.148002 0.57413,1.531173 0.0729,0.191586 0.13165,0.34553 0.17415,0.453202 0.0213,0.05384 0.0384,0.09604 0.0506,0.125057 0.006,0.01451 0.011,0.02597 0.0139,0.03307 l 0.002,0.0041 h 5.2e-4 v 5.17e-4 h 5.2e-4 l 5.1e-4,5.17e-4 5.2e-4,5.17e-4 0.13488,0.167948 0.21497,-0.04082 0.21859,-0.04289 0.97669,-2.933671 c 2.24629,-6.74576 3.71109,-9.490631 4.83174,-12.718603 l 4.63693,-13.3593916 -0.23254,-0.2325439 a 0.08338084,0.08338084 0 0 1 -0.008,-0.107487 z M 117.79281,14.937073 v 0.0217 l 0.2465,0.128157 5.1e-4,5.17e-4 h 5.2e-4 c 0.004,0.0015 0.0204,0.0086 0.0398,0.01602 0.027,0.01032 0.0669,0.02514 0.11524,0.04289 0.0965,0.0355 0.23334,0.08388 0.40256,0.144694 0.33843,0.121617 0.80712,0.289242 1.34927,0.480591 1.08428,0.382699 2.45948,0.863671 3.66799,1.275374 0.75572,0.25745 1.15131,0.376236 1.66243,0.538986 -0.0772,-0.03173 -0.0719,-0.03299 -0.15864,-0.06821 l 0.0114,-0.02842 z"
         style="baseline-shift:baseline;display:inline;overflow:visible;vector-effect:none;fill:#006b77;stroke-linecap:round;stroke-linejoin:round;enable-background:accumulate;stop-color:#000000;stop-opacity:1"
         id="path6" />
      <path
         d="m 147.52795,3.3419149 a 0.08338084,0.08338084 0 0 0 -0.0114,5.167e-4 0.08338084,0.08338084 0 0 0 -0.0222,0.00517 l -2.16421,0.7518921 c -2.94019,1.0208577 -9.75746,3.4959865 -15.86157,5.7345337 -3.05206,1.1192739 -5.92515,2.1799049 -8.04653,2.9688109 -1.0607,0.394454 -1.93418,0.720344 -2.54714,0.952914 -0.30648,0.116286 -0.54668,0.209394 -0.71468,0.275435 -0.084,0.03302 -0.15076,0.06061 -0.1974,0.0801 -0.0233,0.0097 -0.0404,0.01661 -0.0548,0.02325 -0.007,0.0033 -0.0132,0.0067 -0.0191,0.0098 -0.003,0.0015 -0.006,0.0021 -0.0103,0.0041 -0.003,0.002 -0.0127,0.0092 -0.0134,0.0098 l -0.11524,0.0956 29.7217,-10.844299 -0.18294,0.1875855 0.0103,-0.00362 -0.18759,0.2578654 a 0.08338084,0.08338084 0 0 0 0.008,0.107487 l 0.23254,0.2325439 -4.63693,13.3593916 c -1.12065,3.227972 -2.58545,5.972843 -4.83174,12.718603 l -0.97669,2.933671 -0.21859,0.04289 -0.21497,0.04082 -0.13488,-0.167948 c 0,0 -5.2e-4,-5.17e-4 -5.2e-4,-5.17e-4 0,0 -5.1e-4,-5.17e-4 -5.1e-4,-5.17e-4 h -5.2e-4 v -5.17e-4 h -5.2e-4 l -0.002,-0.0041 c -0.003,-0.0071 -0.008,-0.01856 -0.0139,-0.03307 -0.0122,-0.02902 -0.0293,-0.07122 -0.0506,-0.125057 -0.0425,-0.107672 -0.10123,-0.261616 -0.17415,-0.453202 -0.14583,-0.383171 -0.34666,-0.917784 -0.57413,-1.531173 -0.45494,-1.226777 -1.01891,-2.773664 -1.48414,-4.088122 -0.23262,-0.657228 -0.44184,-1.255913 -0.5979,-1.72651 -0.0397,-0.119777 -0.0396,-0.139444 -0.0724,-0.241845 0.1556,0.3393 0.31301,0.679938 0.60772,1.37666 l 0.15244,-0.06615 -2.65668,-6.28127 a 0.08338084,0.08338084 0 0 0 -0.045,-0.04496 l -3.77445,-1.532723 -2.52077,-0.876432 -0.0114,0.02842 c 0.0867,0.03522 0.0814,0.03648 0.15864,0.06821 -0.51112,-0.16275 -0.90671,-0.281536 -1.66243,-0.538986 -1.20851,-0.411703 -2.58371,-0.892675 -3.66799,-1.275374 -0.54215,-0.191349 -1.01084,-0.358974 -1.34927,-0.480591 -0.16922,-0.06081 -0.30604,-0.109197 -0.40256,-0.144694 -0.0483,-0.01775 -0.0882,-0.03257 -0.11524,-0.04289 -0.0194,-0.0074 -0.0358,-0.01447 -0.0398,-0.01602 0,0 -5.2e-4,0 -5.2e-4,0 0,0 -5.1e-4,-5.17e-4 -5.1e-4,-5.17e-4 l -0.2465,-0.128157 v -0.0217 l -0.16588,-0.05736 v 0.130225 a 0.08338084,0.08338084 0 0 0 0.0444,0.0739 l 0.29146,0.152445 c 0.0202,0.01048 0.0302,0.01303 0.0584,0.02377 0.0282,0.01074 0.0666,0.02501 0.11524,0.04289 0.0972,0.03575 0.23466,0.08535 0.40411,0.146244 0.33888,0.121781 0.80741,0.28916 1.34979,0.480591 1.08475,0.382861 2.46271,0.863365 3.67212,1.275374 1.20941,0.41201 2.24751,0.753235 2.66961,0.863514 0.0528,0.01378 0.0947,0.02454 0.12919,0.03101 0.0173,0.0032 0.032,0.0044 0.0465,0.0057 0.0145,0.0012 0.0271,0.0057 0.0527,-0.0015 0.006,-0.0018 0.0231,-0.0093 0.0238,-0.0098 3.8e-4,-2.32e-4 0.006,-0.0089 0.0134,-0.01602 l 4.83226,1.963188 1.7048,4.029211 c -0.005,0.0021 -0.0131,0.0034 -0.0134,0.0036 -7.4e-4,5.27e-4 -0.02,0.01873 -0.0253,0.02739 -0.005,0.0087 -0.008,0.01517 -0.0103,0.0217 -0.008,0.02612 -0.005,0.04015 -0.004,0.05684 0.001,0.01669 0.004,0.03407 0.008,0.05426 0.0301,0.161521 0.13427,0.500656 0.29093,0.973067 0.15666,0.472412 0.36506,1.072279 0.5979,1.730127 0.46567,1.315697 1.03103,2.864313 1.48621,4.09174 0.2276,0.613713 0.42803,1.147802 0.57413,1.531689 0.073,0.191943 0.13275,0.345914 0.1757,0.454753 0.0215,0.05442 0.0376,0.09822 0.0506,0.129191 0.006,0.01549 0.0135,0.02664 0.0181,0.03669 0.002,0.005 0.004,0.0095 0.006,0.01395 0.001,0.0023 0.002,0.005 0.004,0.0078 0.002,0.0024 0.006,0.0094 0.008,0.01137 v 5.17e-4 l 0.17208,0.214457 a 0.08338084,0.08338084 0 0 0 0.0801,0.03152 l 0.26562,-0.05064 0.26561,-0.05116 a 0.08338084,0.08338084 0 0 0 0.0646,-0.05633 l 0.99219,-2.980697 c 2.2437,-6.738002 3.70593,-9.473732 4.83174,-12.716536 l 4.6545,-13.4084842 a 0.08338084,0.08338084 0 0 0 -0.0196,-0.085783 l -0.22066,-0.2185914 0.30283,-0.4159952 a 0.08338084,0.08338084 0 0 0 -0.062,-0.1348755 z"
         style="baseline-shift:baseline;display:inline;overflow:visible;vector-effect:none;fill:#00708a;stroke-linecap:round;stroke-linejoin:round;enable-background:accumulate;stop-color:#000000;stop-opacity:1"
         id="path5" />
      <path
         d="m 147.47162,3.409611 -30.18627,11.013798 0.20412,0.408244 14.07304,4.894791 z"
         style="fill:#ffffff;fill-opacity:0;stroke-width:0.166745"
         id="path4" />
    </g>
  </g>
</svg>
